<svg xmlns="http://www.w3.org/2000/svg" width="22" height="22" viewBox="0 0 22 22">
  <defs>
    <style>
      .cls-1 {
        fill: #f08331;
        fill-rule: evenodd;
      }
    </style>
  </defs>
  <path class="cls-1" d="M9.913,26.995V12.318H5.349V26.995H9.913ZM7.656,10.306a2.7,2.7,0,0,0,2.65-2.65A2.671,2.671,0,0,0,7.656,5a2.651,2.651,0,1,0,0,5.3h0ZM26.995,26.995h0v-8.05c0-3.976-.834-7.019-5.448-7.019a4.762,4.762,0,0,0-4.319,2.405H17.178V12.318H12.76V26.995h4.565V19.73c0-1.914.393-3.78,2.749-3.78s2.356,2.209,2.356,3.878v7.166h4.565Z" transform="translate(-5 -5)"/>
</svg>
